<svg width="18" height="13" viewBox="0 0 18 13" fill="none" xmlns="http://www.w3.org/2000/svg">
<path d="M0.39823 7.1175L6.53097 12.6912C6.75398 12.9025 7.04071 13 7.32743 13C7.64602 13 7.9646 12.87 8.20354 12.61L17.6814 2.03125C17.8885 1.80375 18 1.51125 18 1.21875C18 0.5525 17.4743 0 16.8053 0C16.4867 0 16.1522 0.13 15.9292 0.39L7.24779 10.075L1.99115 5.31375C1.76814 5.1025 1.48142 5.005 1.19469 5.005C0.541593 5.005 0 5.5575 0 6.22375C0 6.54875 0.127434 6.89 0.39823 7.13375V7.1175Z" fill="black"/>
</svg>
