<svg width="15" height="18" viewBox="0 0 15 18" fill="none" xmlns="http://www.w3.org/2000/svg">
<path d="M3.6 8.55556V10.7778M3.6 8.55556V3.22222C3.6 2.48584 4.18203 1.88889 4.9 1.88889C5.61797 1.88889 6.2 2.48584 6.2 3.22222M3.6 8.55556C3.6 7.81918 3.01797 7.22222 2.3 7.22222C1.58203 7.22222 1 7.81918 1 8.55556V10.3333C1 14.0152 3.91015 17 7.5 17C11.0899 17 14 14.0152 14 10.3333V5.88889C14 5.15251 13.418 4.55556 12.7 4.55556C11.982 4.55556 11.4 5.15251 11.4 5.88889M6.2 3.22222V8.11111M6.2 3.22222V2.33333C6.2 1.59695 6.78203 1 7.5 1C8.21797 1 8.8 1.59695 8.8 2.33333V3.22222M8.8 3.22222V8.11111M8.8 3.22222C8.8 2.48584 9.38203 1.88889 10.1 1.88889C10.818 1.88889 11.4 2.48584 11.4 3.22222V5.88889M11.4 5.88889V8.11111" stroke="#46484C" stroke-width="1.3" stroke-linecap="round" stroke-linejoin="round"/>
</svg>
