<svg width="30" height="30" viewBox="0 0 30 30" fill="none" xmlns="http://www.w3.org/2000/svg">
<path d="M15 10C17.7567 10 20 12.2433 20 15C20 17.7567 17.7567 20 15 20C12.2433 20 10 17.7567 10 15C10 12.2433 12.2433 10 15 10ZM15 6.66667C10.3967 6.66667 6.66667 10.3967 6.66667 15C6.66667 19.6033 10.3967 23.3333 15 23.3333C19.6033 23.3333 23.3333 19.6033 23.3333 15C23.3333 10.3967 19.6033 6.66667 15 6.66667ZM15 3.33333C15.5667 3.33333 16.12 3.38833 16.6667 3.46667V0H13.3333V3.46667C13.88 3.38833 14.4333 3.33333 15 3.33333ZM8.02667 5.66833L5.57333 3.21333L3.21667 5.57167L5.67167 8.02667C6.34 7.13167 7.13167 6.33833 8.02667 5.66833ZM24.33 8.025L26.785 5.57L24.4283 3.21333L21.9733 5.66833C22.8683 6.33833 23.66 7.13167 24.33 8.025ZM15 26.6667C14.4333 26.6667 13.88 26.6117 13.3333 26.5333V30H16.6667V26.5333C16.12 26.6117 15.5667 26.6667 15 26.6667ZM21.975 24.33L24.43 26.785L26.7883 24.4267L24.3333 21.9733C23.6617 22.8667 22.8683 23.66 21.975 24.33ZM3.33333 15C3.33333 14.4333 3.38833 13.88 3.46667 13.3333H0V16.6667H3.46667C3.38833 16.12 3.33333 15.5667 3.33333 15ZM26.5333 13.3333C26.6117 13.88 26.6667 14.4333 26.6667 15C26.6667 15.5667 26.6117 16.12 26.5333 16.6667H30V13.3333H26.5333ZM5.66833 21.9733L3.21333 24.4283L5.57 26.785L8.025 24.33C7.13167 23.66 6.33833 22.8683 5.66833 21.9733Z" fill="#868688"/>
</svg>
